<mxfile host="app.diagrams.net" agent="Mozilla/5.0 (Macintosh; Intel Mac OS X 10_15_7) AppleWebKit/537.36 (KHTML, like Gecko) Chrome/131.0.0.0 Safari/537.36" version="25.0.3" pages="3">
  <diagram name="Page-1" id="O9yYPY4qAZch_6_0QE-m">
    <mxGraphModel dx="1590" dy="1065" grid="1" gridSize="10" guides="1" tooltips="1" connect="1" arrows="1" fold="1" page="1" pageScale="1" pageWidth="827" pageHeight="1169" math="0" shadow="0">
      <root>
        <mxCell id="0" />
        <mxCell id="1" parent="0" />
        <mxCell id="RyT3h0q8uJ0lcJPvg5cY-3" style="edgeStyle=orthogonalEdgeStyle;rounded=0;orthogonalLoop=1;jettySize=auto;html=1;exitX=1;exitY=0.5;exitDx=0;exitDy=0;entryX=0;entryY=0.5;entryDx=0;entryDy=0;" parent="1" source="RyT3h0q8uJ0lcJPvg5cY-1" edge="1" target="PSvTm_7GEx3-Y-DfHrny-22">
          <mxGeometry relative="1" as="geometry">
            <mxPoint x="247.78999999999996" y="178" as="targetPoint" />
          </mxGeometry>
        </mxCell>
        <mxCell id="RyT3h0q8uJ0lcJPvg5cY-1" value="Start" style="rounded=1;whiteSpace=wrap;html=1;" parent="1" vertex="1">
          <mxGeometry x="48.5" y="120" width="120" height="60" as="geometry" />
        </mxCell>
        <mxCell id="vrVNIH4W_bRBh-lT8P56-4" style="edgeStyle=orthogonalEdgeStyle;rounded=0;orthogonalLoop=1;jettySize=auto;html=1;exitX=1;exitY=0.5;exitDx=0;exitDy=0;entryX=0;entryY=0.5;entryDx=0;entryDy=0;" parent="1" source="PSvTm_7GEx3-Y-DfHrny-22" target="vrVNIH4W_bRBh-lT8P56-1" edge="1">
          <mxGeometry relative="1" as="geometry" />
        </mxCell>
        <mxCell id="PSvTm_7GEx3-Y-DfHrny-22" value="&lt;b&gt;&lt;font style=&quot;font-size: 13px;&quot;&gt;Declare functions&lt;/font&gt;&lt;/b&gt;&lt;div&gt;&amp;nbsp;double GetHeight(void)&lt;/div&gt;&lt;div&gt;int ProcessText(void)&lt;br&gt;&lt;div&gt;&lt;br&gt;&lt;/div&gt;&lt;/div&gt;&lt;div&gt;&lt;br&gt;&lt;/div&gt;" style="whiteSpace=wrap;html=1;rounded=0;shape=parallelogram;backgroundOutline=1;perimeter=parallelogramPerimeter;fixedSize=1;" parent="1" vertex="1">
          <mxGeometry x="204" y="97.5" width="210" height="105" as="geometry" />
        </mxCell>
        <mxCell id="oYP-oFw4IIcHxhokV4HD-12" style="edgeStyle=orthogonalEdgeStyle;rounded=0;orthogonalLoop=1;jettySize=auto;html=1;exitX=0.5;exitY=1;exitDx=0;exitDy=0;entryX=0.5;entryY=0;entryDx=0;entryDy=0;startArrow=classic;startFill=1;" parent="1" source="PSvTm_7GEx3-Y-DfHrny-27" target="oYP-oFw4IIcHxhokV4HD-9" edge="1">
          <mxGeometry relative="1" as="geometry">
            <mxPoint x="746" y="1212.75" as="targetPoint" />
          </mxGeometry>
        </mxCell>
        <mxCell id="naP6y239zA4MuDU5f73d-7" style="edgeStyle=orthogonalEdgeStyle;rounded=0;orthogonalLoop=1;jettySize=auto;html=1;exitX=0;exitY=0.5;exitDx=0;exitDy=0;entryX=1;entryY=0.5;entryDx=0;entryDy=0;" parent="1" source="PSvTm_7GEx3-Y-DfHrny-27" target="oYP-oFw4IIcHxhokV4HD-14" edge="1">
          <mxGeometry relative="1" as="geometry">
            <Array as="points">
              <mxPoint x="510" y="520" />
              <mxPoint x="510" y="647" />
            </Array>
          </mxGeometry>
        </mxCell>
        <mxCell id="PSvTm_7GEx3-Y-DfHrny-27" value="&lt;i style=&quot;font-size: medium; text-align: start;&quot;&gt;&lt;span style=&quot;font-size: 11pt; line-height: 16.1333px; font-family: Calibri, sans-serif;&quot;&gt;UsermmToUnitHeightScaler&lt;/span&gt;&lt;/i&gt;&lt;span style=&quot;font-size: medium; text-align: start;&quot;&gt;&lt;/span&gt;" style="shape=process;whiteSpace=wrap;html=1;backgroundOutline=1;" parent="1" vertex="1">
          <mxGeometry x="603" y="470" width="198.5" height="99.25" as="geometry" />
        </mxCell>
        <mxCell id="PSvTm_7GEx3-Y-DfHrny-44" style="edgeStyle=orthogonalEdgeStyle;rounded=0;orthogonalLoop=1;jettySize=auto;html=1;exitX=0.5;exitY=1;exitDx=0;exitDy=0;entryX=0.5;entryY=0;entryDx=0;entryDy=0;" parent="1" source="PSvTm_7GEx3-Y-DfHrny-37" target="PSvTm_7GEx3-Y-DfHrny-42" edge="1">
          <mxGeometry relative="1" as="geometry" />
        </mxCell>
        <mxCell id="oYP-oFw4IIcHxhokV4HD-11" style="edgeStyle=orthogonalEdgeStyle;rounded=0;orthogonalLoop=1;jettySize=auto;html=1;exitX=1;exitY=0.5;exitDx=0;exitDy=0;entryX=0;entryY=0.5;entryDx=0;entryDy=0;startArrow=classic;startFill=1;" parent="1" source="PSvTm_7GEx3-Y-DfHrny-37" target="oYP-oFw4IIcHxhokV4HD-7" edge="1">
          <mxGeometry relative="1" as="geometry" />
        </mxCell>
        <mxCell id="PSvTm_7GEx3-Y-DfHrny-37" value="ProcessText()" style="shape=process;whiteSpace=wrap;html=1;backgroundOutline=1;" parent="1" vertex="1">
          <mxGeometry x="260" y="748.25" width="120" height="60" as="geometry" />
        </mxCell>
        <mxCell id="oYP-oFw4IIcHxhokV4HD-18" style="edgeStyle=orthogonalEdgeStyle;rounded=0;orthogonalLoop=1;jettySize=auto;html=1;exitX=0.5;exitY=1;exitDx=0;exitDy=0;entryX=0.5;entryY=0;entryDx=0;entryDy=0;" parent="1" source="PSvTm_7GEx3-Y-DfHrny-38" target="PSvTm_7GEx3-Y-DfHrny-45" edge="1">
          <mxGeometry relative="1" as="geometry" />
        </mxCell>
        <mxCell id="oYP-oFw4IIcHxhokV4HD-21" style="edgeStyle=orthogonalEdgeStyle;rounded=0;orthogonalLoop=1;jettySize=auto;html=1;exitX=0.5;exitY=0;exitDx=0;exitDy=0;entryX=0.5;entryY=1;entryDx=0;entryDy=0;" parent="1" source="PSvTm_7GEx3-Y-DfHrny-38" target="PSvTm_7GEx3-Y-DfHrny-36" edge="1">
          <mxGeometry relative="1" as="geometry" />
        </mxCell>
        <mxCell id="PSvTm_7GEx3-Y-DfHrny-38" value="any more words?" style="rhombus;whiteSpace=wrap;html=1;" parent="1" vertex="1">
          <mxGeometry x="45.5" y="860" width="80" height="80" as="geometry" />
        </mxCell>
        <mxCell id="PSvTm_7GEx3-Y-DfHrny-43" style="edgeStyle=orthogonalEdgeStyle;rounded=0;orthogonalLoop=1;jettySize=auto;html=1;exitX=0;exitY=0.5;exitDx=0;exitDy=0;entryX=1;entryY=0.5;entryDx=0;entryDy=0;" parent="1" source="PSvTm_7GEx3-Y-DfHrny-42" target="PSvTm_7GEx3-Y-DfHrny-38" edge="1">
          <mxGeometry relative="1" as="geometry" />
        </mxCell>
        <mxCell id="PSvTm_7GEx3-Y-DfHrny-42" value="send instructions" style="shape=parallelogram;perimeter=parallelogramPerimeter;whiteSpace=wrap;html=1;fixedSize=1;" parent="1" vertex="1">
          <mxGeometry x="260" y="870" width="120" height="60" as="geometry" />
        </mxCell>
        <mxCell id="jaymxbTakEcgR-LR3NsR-32" style="edgeStyle=orthogonalEdgeStyle;rounded=0;orthogonalLoop=1;jettySize=auto;html=1;exitX=1;exitY=0.5;exitDx=0;exitDy=0;entryX=0;entryY=0.5;entryDx=0;entryDy=0;" edge="1" parent="1" source="PSvTm_7GEx3-Y-DfHrny-45" target="PSvTm_7GEx3-Y-DfHrny-46">
          <mxGeometry relative="1" as="geometry" />
        </mxCell>
        <mxCell id="PSvTm_7GEx3-Y-DfHrny-45" value="&lt;div&gt;PenDown = False&lt;br&gt;&lt;/div&gt;xCoordinate = 0&lt;div&gt;yCordinare = 0&lt;/div&gt;&lt;div&gt;&lt;br&gt;&lt;/div&gt;" style="shape=parallelogram;perimeter=parallelogramPerimeter;whiteSpace=wrap;html=1;fixedSize=1;" parent="1" vertex="1">
          <mxGeometry x="14.5" y="990" width="142" height="71" as="geometry" />
        </mxCell>
        <mxCell id="PSvTm_7GEx3-Y-DfHrny-46" value="end" style="rounded=1;whiteSpace=wrap;html=1;" parent="1" vertex="1">
          <mxGeometry x="270" y="995.5" width="120" height="60" as="geometry" />
        </mxCell>
        <mxCell id="jaymxbTakEcgR-LR3NsR-31" style="edgeStyle=orthogonalEdgeStyle;rounded=0;orthogonalLoop=1;jettySize=auto;html=1;exitX=1;exitY=0.5;exitDx=0;exitDy=0;" edge="1" parent="1" source="PSvTm_7GEx3-Y-DfHrny-36" target="PSvTm_7GEx3-Y-DfHrny-37">
          <mxGeometry relative="1" as="geometry" />
        </mxCell>
        <mxCell id="PSvTm_7GEx3-Y-DfHrny-36" value="open file" style="shape=parallelogram;perimeter=parallelogramPerimeter;whiteSpace=wrap;html=1;fixedSize=1;" parent="1" vertex="1">
          <mxGeometry x="9" y="740" width="153" height="76.5" as="geometry" />
        </mxCell>
        <mxCell id="oYP-oFw4IIcHxhokV4HD-7" value="&lt;b&gt;&lt;font style=&quot;font-size: 13px;&quot;&gt;Changes&lt;/font&gt;&lt;/b&gt;&lt;div&gt;CurrentAvailableLineSpace&lt;/div&gt;&lt;div&gt;CurrentWord&lt;br&gt;&lt;div&gt;xCoordinate&lt;/div&gt;&lt;div&gt;yCoordinate&lt;/div&gt;&lt;/div&gt;" style="shape=parallelogram;perimeter=parallelogramPerimeter;whiteSpace=wrap;html=1;fixedSize=1;" parent="1" vertex="1">
          <mxGeometry x="420" y="728.25" width="200" height="100" as="geometry" />
        </mxCell>
        <mxCell id="oYP-oFw4IIcHxhokV4HD-9" value="&lt;b&gt;Changes&lt;/b&gt;&lt;div&gt;LetterHeightScaled&lt;br&gt;&lt;/div&gt;" style="shape=parallelogram;perimeter=parallelogramPerimeter;whiteSpace=wrap;html=1;fixedSize=1;" parent="1" vertex="1">
          <mxGeometry x="629.25" y="620" width="146" height="73" as="geometry" />
        </mxCell>
        <mxCell id="jaymxbTakEcgR-LR3NsR-30" style="edgeStyle=orthogonalEdgeStyle;rounded=0;orthogonalLoop=1;jettySize=auto;html=1;exitX=0.5;exitY=1;exitDx=0;exitDy=0;entryX=0.5;entryY=0;entryDx=0;entryDy=0;" edge="1" parent="1" source="oYP-oFw4IIcHxhokV4HD-14" target="PSvTm_7GEx3-Y-DfHrny-36">
          <mxGeometry relative="1" as="geometry" />
        </mxCell>
        <mxCell id="oYP-oFw4IIcHxhokV4HD-14" value="Input text file name" style="shape=parallelogram;perimeter=parallelogramPerimeter;whiteSpace=wrap;html=1;fixedSize=1;" parent="1" vertex="1">
          <mxGeometry x="11.5" y="610" width="148" height="74" as="geometry" />
        </mxCell>
        <mxCell id="oYP-oFw4IIcHxhokV4HD-19" value="&lt;h1 style=&quot;margin-top: 0px;&quot;&gt;Text Robot Program Flowchart&lt;/h1&gt;" style="text;html=1;whiteSpace=wrap;overflow=hidden;rounded=0;fontSize=18;" parent="1" vertex="1">
          <mxGeometry x="105" y="50" width="617.57" height="110" as="geometry" />
        </mxCell>
        <mxCell id="vrVNIH4W_bRBh-lT8P56-7" style="edgeStyle=orthogonalEdgeStyle;rounded=0;orthogonalLoop=1;jettySize=auto;html=1;exitX=1;exitY=0.5;exitDx=0;exitDy=0;entryX=0.5;entryY=0;entryDx=0;entryDy=0;" parent="1" source="vrVNIH4W_bRBh-lT8P56-1" target="vrVNIH4W_bRBh-lT8P56-6" edge="1">
          <mxGeometry relative="1" as="geometry">
            <mxPoint x="1250" y="102.5" as="targetPoint" />
          </mxGeometry>
        </mxCell>
        <mxCell id="vrVNIH4W_bRBh-lT8P56-1" value="Main()" style="rounded=0;whiteSpace=wrap;html=1;shape=process;backgroundOutline=1;" parent="1" vertex="1">
          <mxGeometry x="460" y="120" width="120" height="60" as="geometry" />
        </mxCell>
        <mxCell id="jaymxbTakEcgR-LR3NsR-28" style="edgeStyle=orthogonalEdgeStyle;rounded=0;orthogonalLoop=1;jettySize=auto;html=1;exitX=0;exitY=0.5;exitDx=0;exitDy=0;entryX=1;entryY=0.5;entryDx=0;entryDy=0;" edge="1" parent="1" source="vrVNIH4W_bRBh-lT8P56-6" target="naP6y239zA4MuDU5f73d-1">
          <mxGeometry relative="1" as="geometry" />
        </mxCell>
        <mxCell id="vrVNIH4W_bRBh-lT8P56-6" value="&lt;b&gt;&lt;font style=&quot;font-size: 13px;&quot;&gt;Declare variables&lt;/font&gt;&lt;/b&gt;&lt;div&gt;double LetterHeightScaled&lt;/div&gt;&lt;div&gt;double CurrentAvailableLineSpace&lt;/div&gt;&lt;div&gt;double CurrentWordWidthmm&lt;/div&gt;&lt;div&gt;double xCoordinate&lt;/div&gt;&lt;div&gt;double yCoordinate&lt;/div&gt;&lt;div&gt;array struct FontData&lt;/div&gt;" style="shape=parallelogram;perimeter=parallelogramPerimeter;whiteSpace=wrap;html=1;fixedSize=1;rounded=0;" parent="1" vertex="1">
          <mxGeometry x="565.5" y="220" width="236" height="118" as="geometry" />
        </mxCell>
        <mxCell id="naP6y239zA4MuDU5f73d-3" value="" style="edgeStyle=orthogonalEdgeStyle;rounded=0;orthogonalLoop=1;jettySize=auto;html=1;startArrow=none;startFill=0;entryX=1;entryY=0.5;entryDx=0;entryDy=0;" parent="1" source="naP6y239zA4MuDU5f73d-1" target="naP6y239zA4MuDU5f73d-2" edge="1">
          <mxGeometry relative="1" as="geometry" />
        </mxCell>
        <mxCell id="naP6y239zA4MuDU5f73d-1" value="Read font data from&amp;nbsp;&lt;span style=&quot;text-align: start; line-height: 14.2667px; font-family: Verdana, sans-serif;&quot;&gt;&lt;font&gt;‘SingleStrokeFont.txt’&lt;/font&gt;&lt;/span&gt;&lt;span style=&quot;font-size: medium; text-align: start;&quot;&gt;&lt;/span&gt;&lt;div style=&quot;text-align: start;&quot;&gt;&lt;br&gt;&lt;/div&gt;" style="shape=parallelogram;perimeter=parallelogramPerimeter;whiteSpace=wrap;html=1;fixedSize=1;" parent="1" vertex="1">
          <mxGeometry x="281" y="229.75" width="197" height="98.5" as="geometry" />
        </mxCell>
        <mxCell id="jaymxbTakEcgR-LR3NsR-24" style="edgeStyle=orthogonalEdgeStyle;rounded=0;orthogonalLoop=1;jettySize=auto;html=1;exitX=0.5;exitY=1;exitDx=0;exitDy=0;entryX=0.5;entryY=0;entryDx=0;entryDy=0;" edge="1" parent="1" source="naP6y239zA4MuDU5f73d-2" target="jaymxbTakEcgR-LR3NsR-18">
          <mxGeometry relative="1" as="geometry">
            <mxPoint x="125.5" y="370.75" as="targetPoint" />
          </mxGeometry>
        </mxCell>
        <mxCell id="naP6y239zA4MuDU5f73d-2" value="&lt;div style=&quot;text-align: start;&quot;&gt;save under FontData&amp;nbsp;&lt;/div&gt;&lt;div style=&quot;text-align: start;&quot;&gt;(2d array struct)&lt;/div&gt;" style="shape=parallelogram;perimeter=parallelogramPerimeter;whiteSpace=wrap;html=1;fixedSize=1;" parent="1" vertex="1">
          <mxGeometry x="48.5" y="240.75" width="153" height="76.5" as="geometry" />
        </mxCell>
        <mxCell id="jaymxbTakEcgR-LR3NsR-17" style="edgeStyle=orthogonalEdgeStyle;rounded=0;orthogonalLoop=1;jettySize=auto;html=1;exitX=1;exitY=0.5;exitDx=0;exitDy=0;entryX=0;entryY=0.5;entryDx=0;entryDy=0;" edge="1" parent="1" source="jaymxbTakEcgR-LR3NsR-18" target="jaymxbTakEcgR-LR3NsR-20">
          <mxGeometry relative="1" as="geometry" />
        </mxCell>
        <mxCell id="jaymxbTakEcgR-LR3NsR-18" value="print (&#39;enter height between 4 - 10mm&#39;)&lt;div&gt;recieve user input height to&amp;nbsp;&lt;i style=&quot;background-color: initial; font-size: medium; text-align: start;&quot;&gt;&lt;span style=&quot;font-size: 11pt; line-height: 16.1333px; font-family: Calibri, sans-serif;&quot;&gt;InputmmHeight&lt;/span&gt;&lt;/i&gt;&lt;/div&gt;&lt;div&gt;&lt;i style=&quot;background-color: initial; font-size: medium; text-align: start;&quot;&gt;&lt;span style=&quot;font-size: 11pt; line-height: 16.1333px; font-family: Calibri, sans-serif;&quot;&gt;variable&lt;/span&gt;&lt;/i&gt;&lt;/div&gt;&lt;span style=&quot;font-size: medium; text-align: start;&quot;&gt;&lt;/span&gt;" style="shape=parallelogram;perimeter=parallelogramPerimeter;whiteSpace=wrap;html=1;fixedSize=1;" vertex="1" parent="1">
          <mxGeometry x="5" y="370" width="240" height="120" as="geometry" />
        </mxCell>
        <mxCell id="jaymxbTakEcgR-LR3NsR-19" style="edgeStyle=orthogonalEdgeStyle;rounded=0;orthogonalLoop=1;jettySize=auto;html=1;exitX=0.5;exitY=1;exitDx=0;exitDy=0;entryX=0.5;entryY=0;entryDx=0;entryDy=0;" edge="1" parent="1" source="jaymxbTakEcgR-LR3NsR-20" target="jaymxbTakEcgR-LR3NsR-23">
          <mxGeometry relative="1" as="geometry">
            <mxPoint x="310" y="645" as="targetPoint" />
          </mxGeometry>
        </mxCell>
        <mxCell id="jaymxbTakEcgR-LR3NsR-29" style="edgeStyle=orthogonalEdgeStyle;rounded=0;orthogonalLoop=1;jettySize=auto;html=1;exitX=1;exitY=0.5;exitDx=0;exitDy=0;entryX=0.5;entryY=0;entryDx=0;entryDy=0;" edge="1" parent="1" source="jaymxbTakEcgR-LR3NsR-20" target="PSvTm_7GEx3-Y-DfHrny-27">
          <mxGeometry relative="1" as="geometry" />
        </mxCell>
        <mxCell id="jaymxbTakEcgR-LR3NsR-20" value="Is height between 4 and 10 ?" style="rhombus;whiteSpace=wrap;html=1;" vertex="1" parent="1">
          <mxGeometry x="334" y="380" width="100" height="100" as="geometry" />
        </mxCell>
        <mxCell id="jaymxbTakEcgR-LR3NsR-22" style="edgeStyle=orthogonalEdgeStyle;rounded=0;orthogonalLoop=1;jettySize=auto;html=1;exitX=0.5;exitY=1;exitDx=0;exitDy=0;entryX=0.5;entryY=1;entryDx=0;entryDy=0;" edge="1" parent="1" source="jaymxbTakEcgR-LR3NsR-23" target="jaymxbTakEcgR-LR3NsR-18">
          <mxGeometry relative="1" as="geometry" />
        </mxCell>
        <mxCell id="jaymxbTakEcgR-LR3NsR-23" value="print(&#39;please enter valid height between 4 and 10&#39;)" style="shape=parallelogram;perimeter=parallelogramPerimeter;whiteSpace=wrap;html=1;fixedSize=1;" vertex="1" parent="1">
          <mxGeometry x="249" y="520" width="120" height="60" as="geometry" />
        </mxCell>
      </root>
    </mxGraphModel>
  </diagram>
  <diagram id="rnZnNiLrRkfmeJ1iTpo8" name="Page-2">
    <mxGraphModel dx="954" dy="639" grid="1" gridSize="10" guides="1" tooltips="1" connect="1" arrows="1" fold="1" page="1" pageScale="1" pageWidth="827" pageHeight="1169" math="0" shadow="0">
      <root>
        <mxCell id="0" />
        <mxCell id="1" parent="0" />
        <mxCell id="WZK3O7w4llL-K0ui3LTR-3" style="edgeStyle=orthogonalEdgeStyle;rounded=0;orthogonalLoop=1;jettySize=auto;html=1;exitX=1;exitY=0.5;exitDx=0;exitDy=0;entryX=0;entryY=0.5;entryDx=0;entryDy=0;" parent="1" source="nWOsjJTy5GrBwk9Dym0t-11" target="a2E5ijAHfJek6qGxfJAZ-1" edge="1">
          <mxGeometry relative="1" as="geometry" />
        </mxCell>
        <mxCell id="nWOsjJTy5GrBwk9Dym0t-11" value="ProcessText()" style="shape=process;whiteSpace=wrap;html=1;backgroundOutline=1;" parent="1" vertex="1">
          <mxGeometry x="60" y="135" width="160" height="80" as="geometry" />
        </mxCell>
        <mxCell id="a2E5ijAHfJek6qGxfJAZ-3" style="edgeStyle=orthogonalEdgeStyle;rounded=0;orthogonalLoop=1;jettySize=auto;html=1;exitX=1;exitY=0.5;exitDx=0;exitDy=0;entryX=0.5;entryY=0;entryDx=0;entryDy=0;" parent="1" source="a2E5ijAHfJek6qGxfJAZ-1" target="a2E5ijAHfJek6qGxfJAZ-2" edge="1">
          <mxGeometry relative="1" as="geometry" />
        </mxCell>
        <mxCell id="a2E5ijAHfJek6qGxfJAZ-1" value="read first instruction and&amp;nbsp;&lt;div&gt;create 3 dimensional struct of int with number of rows dependent of moves needed to draw letter&lt;/div&gt;" style="shape=parallelogram;perimeter=parallelogramPerimeter;whiteSpace=wrap;html=1;fixedSize=1;" parent="1" vertex="1">
          <mxGeometry x="290" y="115" width="240" height="120" as="geometry" />
        </mxCell>
        <mxCell id="a2E5ijAHfJek6qGxfJAZ-7" style="edgeStyle=orthogonalEdgeStyle;rounded=0;orthogonalLoop=1;jettySize=auto;html=1;exitX=0.5;exitY=1;exitDx=0;exitDy=0;entryX=0.5;entryY=0;entryDx=0;entryDy=0;" parent="1" source="a2E5ijAHfJek6qGxfJAZ-2" target="a2E5ijAHfJek6qGxfJAZ-8" edge="1">
          <mxGeometry relative="1" as="geometry">
            <mxPoint x="514.6666666666667" y="415" as="targetPoint" />
          </mxGeometry>
        </mxCell>
        <mxCell id="a2E5ijAHfJek6qGxfJAZ-2" value="read next instruction&lt;div&gt;and increment WordWidth&lt;/div&gt;" style="shape=parallelogram;perimeter=parallelogramPerimeter;whiteSpace=wrap;html=1;fixedSize=1;" parent="1" vertex="1">
          <mxGeometry x="644" y="250" width="140.14" height="80" as="geometry" />
        </mxCell>
        <mxCell id="a2E5ijAHfJek6qGxfJAZ-6" style="edgeStyle=orthogonalEdgeStyle;rounded=0;orthogonalLoop=1;jettySize=auto;html=1;exitX=0.5;exitY=-0.075;exitDx=0;exitDy=0;entryX=0;entryY=0.5;entryDx=0;entryDy=0;exitPerimeter=0;" parent="1" source="a2E5ijAHfJek6qGxfJAZ-4" target="a2E5ijAHfJek6qGxfJAZ-2" edge="1">
          <mxGeometry relative="1" as="geometry">
            <Array as="points">
              <mxPoint x="50" y="290" />
            </Array>
          </mxGeometry>
        </mxCell>
        <mxCell id="WZK3O7w4llL-K0ui3LTR-4" value="NO" style="edgeLabel;html=1;align=center;verticalAlign=middle;resizable=0;points=[];" parent="a2E5ijAHfJek6qGxfJAZ-6" vertex="1" connectable="0">
          <mxGeometry x="-0.2821" y="1" relative="1" as="geometry">
            <mxPoint as="offset" />
          </mxGeometry>
        </mxCell>
        <mxCell id="a2E5ijAHfJek6qGxfJAZ-10" style="edgeStyle=orthogonalEdgeStyle;rounded=0;orthogonalLoop=1;jettySize=auto;html=1;exitX=0.5;exitY=1;exitDx=0;exitDy=0;entryX=0;entryY=0.5;entryDx=0;entryDy=0;" parent="1" source="a2E5ijAHfJek6qGxfJAZ-4" target="a2E5ijAHfJek6qGxfJAZ-11" edge="1">
          <mxGeometry relative="1" as="geometry">
            <mxPoint x="474" y="705" as="targetPoint" />
          </mxGeometry>
        </mxCell>
        <mxCell id="WZK3O7w4llL-K0ui3LTR-5" value="YES" style="edgeLabel;html=1;align=center;verticalAlign=middle;resizable=0;points=[];" parent="a2E5ijAHfJek6qGxfJAZ-10" vertex="1" connectable="0">
          <mxGeometry x="-0.822" y="-3" relative="1" as="geometry">
            <mxPoint as="offset" />
          </mxGeometry>
        </mxCell>
        <mxCell id="a2E5ijAHfJek6qGxfJAZ-4" value="end of&lt;div&gt;word ?&lt;/div&gt;" style="rhombus;whiteSpace=wrap;html=1;" parent="1" vertex="1">
          <mxGeometry x="10" y="355" width="80" height="80" as="geometry" />
        </mxCell>
        <mxCell id="a2E5ijAHfJek6qGxfJAZ-9" style="edgeStyle=orthogonalEdgeStyle;rounded=0;orthogonalLoop=1;jettySize=auto;html=1;exitX=0;exitY=0.5;exitDx=0;exitDy=0;entryX=1;entryY=0.5;entryDx=0;entryDy=0;" parent="1" source="a2E5ijAHfJek6qGxfJAZ-8" target="a2E5ijAHfJek6qGxfJAZ-4" edge="1">
          <mxGeometry relative="1" as="geometry">
            <mxPoint x="200" y="635" as="targetPoint" />
          </mxGeometry>
        </mxCell>
        <mxCell id="a2E5ijAHfJek6qGxfJAZ-8" value="append (x,y,z) move&amp;nbsp;&lt;div&gt;instruction to struct array&lt;/div&gt;" style="shape=parallelogram;perimeter=parallelogramPerimeter;whiteSpace=wrap;html=1;fixedSize=1;" parent="1" vertex="1">
          <mxGeometry x="624.07" y="410" width="180" height="90" as="geometry" />
        </mxCell>
        <mxCell id="a2E5ijAHfJek6qGxfJAZ-14" style="edgeStyle=orthogonalEdgeStyle;rounded=0;orthogonalLoop=1;jettySize=auto;html=1;exitX=1;exitY=0.5;exitDx=0;exitDy=0;" parent="1" source="a2E5ijAHfJek6qGxfJAZ-11" target="a2E5ijAHfJek6qGxfJAZ-15" edge="1">
          <mxGeometry relative="1" as="geometry">
            <mxPoint x="194" y="845" as="targetPoint" />
          </mxGeometry>
        </mxCell>
        <mxCell id="WZK3O7w4llL-K0ui3LTR-6" style="edgeStyle=orthogonalEdgeStyle;rounded=0;orthogonalLoop=1;jettySize=auto;html=1;exitX=0.5;exitY=1;exitDx=0;exitDy=0;" parent="1" source="a2E5ijAHfJek6qGxfJAZ-11" edge="1">
          <mxGeometry relative="1" as="geometry">
            <mxPoint x="310" y="900" as="targetPoint" />
          </mxGeometry>
        </mxCell>
        <mxCell id="a2E5ijAHfJek6qGxfJAZ-11" value="word width greater than available width" style="rhombus;whiteSpace=wrap;html=1;" parent="1" vertex="1">
          <mxGeometry x="70" y="460" width="270" height="270" as="geometry" />
        </mxCell>
        <mxCell id="a2E5ijAHfJek6qGxfJAZ-15" value="-5 from y reference coordinate&lt;div&gt;set available width to max&lt;/div&gt;" style="shape=parallelogram;perimeter=parallelogramPerimeter;whiteSpace=wrap;html=1;fixedSize=1;" parent="1" vertex="1">
          <mxGeometry x="570" y="547.5" width="190" height="95" as="geometry" />
        </mxCell>
        <mxCell id="h7_YX3KfGsT8fggZU_o3-2" value="&lt;h1 style=&quot;margin-top: 0px;&quot;&gt;Functions and Struct&lt;/h1&gt;" style="text;html=1;whiteSpace=wrap;overflow=hidden;rounded=0;fontSize=18;" parent="1" vertex="1">
          <mxGeometry x="241.21499999999997" y="20" width="617.57" height="110" as="geometry" />
        </mxCell>
      </root>
    </mxGraphModel>
  </diagram>
  <diagram id="3I6qizGgRcAfM4pI56lu" name="Page-3">
    <mxGraphModel dx="954" dy="639" grid="1" gridSize="10" guides="1" tooltips="1" connect="1" arrows="1" fold="1" page="1" pageScale="1" pageWidth="827" pageHeight="1169" math="0" shadow="0">
      <root>
        <mxCell id="0" />
        <mxCell id="1" parent="0" />
        <mxCell id="XydtvAnNARsTBT_Fbbyh-1" style="edgeStyle=orthogonalEdgeStyle;rounded=0;orthogonalLoop=1;jettySize=auto;html=1;exitX=1;exitY=0.5;exitDx=0;exitDy=0;entryX=0.5;entryY=0;entryDx=0;entryDy=0;" edge="1" parent="1" source="XydtvAnNARsTBT_Fbbyh-2" target="XydtvAnNARsTBT_Fbbyh-6">
          <mxGeometry relative="1" as="geometry">
            <mxPoint x="300" y="175" as="targetPoint" />
          </mxGeometry>
        </mxCell>
        <mxCell id="XydtvAnNARsTBT_Fbbyh-2" value="GetHeight()" style="shape=process;whiteSpace=wrap;html=1;backgroundOutline=1;" vertex="1" parent="1">
          <mxGeometry x="60" y="135" width="160" height="80" as="geometry" />
        </mxCell>
        <mxCell id="kSsEFCNMWo9w-1se9o6a-7" style="edgeStyle=orthogonalEdgeStyle;rounded=0;orthogonalLoop=1;jettySize=auto;html=1;exitX=0.5;exitY=1;exitDx=0;exitDy=0;" edge="1" parent="1" source="XydtvAnNARsTBT_Fbbyh-6" target="kSsEFCNMWo9w-1se9o6a-8">
          <mxGeometry relative="1" as="geometry">
            <mxPoint x="600" y="500" as="targetPoint" />
          </mxGeometry>
        </mxCell>
        <mxCell id="XydtvAnNARsTBT_Fbbyh-6" value="set InputnnHeight /18&amp;nbsp;&lt;div&gt;to&amp;nbsp;&lt;i style=&quot;background-color: initial; font-size: medium; text-align: start;&quot;&gt;&lt;span style=&quot;font-size: 11pt; line-height: 16.1333px; font-family: Calibri, sans-serif;&quot;&gt;OutputScaledHeight&lt;/span&gt;&lt;/i&gt;&lt;/div&gt;&lt;div&gt;&lt;i style=&quot;background-color: initial; font-size: medium; text-align: start;&quot;&gt;&lt;span style=&quot;font-size: 11pt; line-height: 16.1333px; font-family: Calibri, sans-serif;&quot;&gt;pointer&lt;/span&gt;&lt;/i&gt;&lt;/div&gt;&lt;span style=&quot;font-size: medium; text-align: start;&quot;&gt;&lt;/span&gt;" style="shape=parallelogram;perimeter=parallelogramPerimeter;whiteSpace=wrap;html=1;fixedSize=1;" vertex="1" parent="1">
          <mxGeometry x="680" y="300" width="166.42" height="95" as="geometry" />
        </mxCell>
        <mxCell id="XydtvAnNARsTBT_Fbbyh-18" value="&lt;h1 style=&quot;margin-top: 0px;&quot;&gt;Functions and Struct&lt;/h1&gt;" style="text;html=1;whiteSpace=wrap;overflow=hidden;rounded=0;fontSize=18;" vertex="1" parent="1">
          <mxGeometry x="241.21" y="20" width="617.57" height="60" as="geometry" />
        </mxCell>
        <mxCell id="kSsEFCNMWo9w-1se9o6a-10" style="edgeStyle=orthogonalEdgeStyle;rounded=0;orthogonalLoop=1;jettySize=auto;html=1;exitX=0.5;exitY=1;exitDx=0;exitDy=0;entryX=0.5;entryY=0;entryDx=0;entryDy=0;" edge="1" parent="1" source="kSsEFCNMWo9w-1se9o6a-8" target="kSsEFCNMWo9w-1se9o6a-9">
          <mxGeometry relative="1" as="geometry" />
        </mxCell>
        <mxCell id="kSsEFCNMWo9w-1se9o6a-8" value="return 0" style="shape=parallelogram;perimeter=parallelogramPerimeter;whiteSpace=wrap;html=1;fixedSize=1;" vertex="1" parent="1">
          <mxGeometry x="540" y="470" width="120" height="60" as="geometry" />
        </mxCell>
        <mxCell id="kSsEFCNMWo9w-1se9o6a-9" value="end" style="rounded=1;whiteSpace=wrap;html=1;" vertex="1" parent="1">
          <mxGeometry x="530" y="600" width="120" height="60" as="geometry" />
        </mxCell>
      </root>
    </mxGraphModel>
  </diagram>
</mxfile>
